<?xml version="1.0" encoding="UTF-8"?>
<svg version="1.1" xmlns="http://www.w3.org/2000/svg" width="163" height="309">
<path d="M0 0 C53.79 0 107.58 0 163 0 C163 101.97 163 203.94 163 309 C109.21 309 55.42 309 0 309 C0 207.03 0 105.06 0 0 Z " fill="#FEFDFD" transform="translate(0,0)"/>
<path d="M0 0 C3.08696539 2.51831387 4.2614489 4.14365002 5 8 C5.08378506 10.90959378 5.11617895 13.79421241 5.09765625 16.703125 C5.0962413 17.54091492 5.09482635 18.37870483 5.09336853 19.24188232 C5.08778197 21.91129157 5.07523194 24.5806162 5.0625 27.25 C5.05748326 29.06249879 5.05292066 30.87499889 5.04882812 32.6875 C5.03781694 37.12503248 5.02056155 41.56250191 5 46 C2.36 46 -0.28 46 -3 46 C-3.33 44.68 -3.66 43.36 -4 42 C-4.81791016 42.54140625 -4.81791016 42.54140625 -5.65234375 43.09375 C-11.22003392 46.52002088 -15.46896092 48.08453386 -22 47 C-25.62889395 46.07871103 -28.29202587 44.730812 -30.9375 42 C-32.60642496 37.28774129 -32.86117866 32.92707135 -32 28 C-29.76304505 23.60541474 -26.00693598 20.15997159 -21.34375 18.421875 C-15.66519911 17.39973584 -9.74621369 17.80032462 -4 18 C-4.25523874 16.37247769 -4.52974494 14.74796804 -4.8125 13.125 C-4.96332031 12.22007812 -5.11414063 11.31515625 -5.26953125 10.3828125 C-5.83051301 7.65587522 -5.83051301 7.65587522 -9 6 C-12.26270075 5.71882676 -12.26270075 5.71882676 -15.875 5.8125 C-17.08929688 5.81894531 -18.30359375 5.82539063 -19.5546875 5.83203125 C-22.49774427 5.97551361 -25.14136918 6.32066758 -28 7 C-28.66 5.02 -29.32 3.04 -30 1 C-28.58398286 0.51891725 -27.16715563 0.04021859 -25.75 -0.4375 C-24.96109375 -0.70433594 -24.1721875 -0.97117188 -23.359375 -1.24609375 C-15.22759711 -3.84449298 -7.59744086 -4.25456688 0 0 Z " fill="#F58218" transform="translate(60,241)"/>
<path d="M0 0 C2.58926618 1.88261229 3.50554276 3.43871811 4.875 6.36328125 C5.27841535 9.44780155 5.22460953 12.49534523 5.16796875 15.6015625 C5.16372391 16.48232956 5.15947906 17.36309662 5.15510559 18.27055359 C5.13836644 21.07261235 5.1007233 23.87394134 5.0625 26.67578125 C5.04744699 28.58006771 5.03375966 30.48436549 5.02148438 32.38867188 C4.98847854 37.04715447 4.93672929 41.7050943 4.875 46.36328125 C2.565 46.36328125 0.255 46.36328125 -2.125 46.36328125 C-2.785 45.04328125 -3.445 43.72328125 -4.125 42.36328125 C-5.23875 43.00265625 -6.3525 43.64203125 -7.5 44.30078125 C-13.12336322 47.52900828 -17.68743692 48.36449051 -24.16796875 46.90234375 C-27.36722727 45.7426978 -29.04673813 44.46931347 -31.0625 41.73828125 C-32.85590446 36.04158471 -33.16393324 31.48110671 -30.5 26.05078125 C-27.18944743 22.30462965 -23.86966151 19.94483509 -19.125 18.36328125 C-16.55234182 18.29299004 -14.00858569 18.26957293 -11.4375 18.30078125 C-10.73560547 18.30529297 -10.03371094 18.30980469 -9.31054688 18.31445312 C-7.58199462 18.32621198 -5.85348635 18.34414671 -4.125 18.36328125 C-4.40711877 16.73659645 -4.70102375 15.11195229 -5 13.48828125 C-5.16242188 12.58335937 -5.32484375 11.6784375 -5.4921875 10.74609375 C-5.95544703 8.19822137 -5.95544703 8.19822137 -8.125 6.36328125 C-11.50748557 6.08017656 -11.50748557 6.08017656 -15.375 6.17578125 C-16.67953125 6.18222656 -17.9840625 6.18867188 -19.328125 6.1953125 C-22.68782529 6.34394122 -25.8284963 6.72343193 -29.125 7.36328125 C-29.455 5.38328125 -29.785 3.40328125 -30.125 1.36328125 C-19.53295899 -2.77741192 -10.67188936 -4.76703881 0 0 Z " fill="#F58319" transform="translate(149.125,240.63671875)"/>
<path d="M0 0 C5.06681516 6.60888935 4.55834966 12.93225202 4 21 C0.93648651 35.30290058 -12.66548012 46.90886396 -23.6875 55.5 C-29.5752325 60.19348321 -34.58597527 65.7579258 -37 73 C-38.54886822 88.26016069 -30.48253143 98.21220632 -22 110 C-22.33 110.66 -22.66 111.32 -23 112 C-48.94250196 87.19360221 -48.94250196 87.19360221 -49.5 74.8125 C-49.27565711 66.37159872 -43.31237088 59.68570744 -37.453125 54.1171875 C-33.8837986 51.0366542 -30.16164077 48.16670913 -26.43359375 45.28198242 C-9.46527042 32.57741045 -9.46527042 32.57741045 -0.75048828 14.10351562 C-0.58225245 11.96487379 -0.46693524 9.83074031 -0.375 7.6875 C-0.33632812 6.94693359 -0.29765625 6.20636719 -0.2578125 5.44335938 C-0.16418295 3.62928691 -0.08103149 1.81467884 0 0 Z " fill="#F58219" transform="translate(103,2)"/>
<path d="M0 0 C3.63 0 7.26 0 11 0 C14.63 11.88 18.26 23.76 22 36 C25.74238246 24.02437612 29.0281238 12.38476632 31 0 C34.3 0 37.6 0 41 0 C40.51876223 8.49243129 38.83178257 15.91294577 36.25 24 C35.91484375 25.09828125 35.5796875 26.1965625 35.234375 27.328125 C32.98941222 34.50520297 30.23564182 41.21194023 27 48 C23.04 48 19.08 48 15 48 C10.9337927 35.89643229 6.89363785 23.78536541 3 11.625 C2.69763428 10.6870459 2.39526855 9.7490918 2.08374023 8.78271484 C1.80860596 7.91855957 1.53347168 7.0544043 1.25 6.1640625 C1.00765625 5.40561035 0.7653125 4.6471582 0.515625 3.86572266 C0 2 0 2 0 0 Z " fill="#F5831A" transform="translate(71,239)"/>
<path d="M0 0 C1.76923828 0.01353516 1.76923828 0.01353516 3.57421875 0.02734375 C4.47785156 0.03894531 5.38148437 0.05054688 6.3125 0.0625 C6.3125 0.3925 6.3125 0.7225 6.3125 1.0625 C5.69503906 1.16046875 5.07757813 1.2584375 4.44140625 1.359375 C-1.75314802 2.45308626 -7.06091119 4.26279639 -12.6875 7.0625 C-12.6875 7.7225 -12.6875 8.3825 -12.6875 9.0625 C-5.38398423 11.8079822 1.62872791 13.43955666 9.3671875 14.17578125 C10.23014435 14.25910202 11.0931012 14.34242279 11.98220825 14.42826843 C22.3752473 15.34998469 32.76057374 15.41287741 43.1875 15.375 C44.71673096 15.37276428 44.71673096 15.37276428 46.27685547 15.3704834 C82.39281489 17.25119471 82.39281489 17.25119471 114.3125 6.0625 C115.00998583 4.74502676 115.68209957 3.41335807 116.3125 2.0625 C117.3025 3.0525 117.3025 3.0525 118.3125 4.0625 C118.09920404 6.50570829 117.69550217 7.69240801 115.921875 9.40625 C80.13124339 31.66260915 16.46863454 25.08998232 -22.67578125 16.00390625 C-25.21110025 14.81747542 -25.73067094 13.63695168 -26.6875 11.0625 C-20.4941516 3.3208145 -9.61815218 -0.09522923 0 0 Z " fill="#517B98" transform="translate(30.6875,176.9375)"/>
<path d="M0 0 C3.3 0 6.6 0 10 0 C10.09294702 8.59749375 10.16388933 17.19477528 10.20724869 25.79264832 C10.22806593 29.78561229 10.25627489 33.77823086 10.30175781 37.77099609 C10.3454269 41.62896081 10.36918115 45.48659467 10.37950897 49.3447876 C10.38686282 50.81192224 10.40122288 52.27904009 10.42292023 53.74603271 C10.55061456 62.74276962 10.64324482 70.22072262 4 77.05859375 C3.34 77.51363281 2.68 77.96867187 2 78.4375 C1.34 78.91058594 0.68 79.38367188 0 79.87109375 C-2.00912747 81.00515203 -3.74482504 81.56205308 -6 82 C-7.32 80.02 -8.64 78.04 -10 76 C-9.51789062 75.61328125 -9.03578125 75.2265625 -8.5390625 74.828125 C-7.59160156 74.04695313 -7.59160156 74.04695313 -6.625 73.25 C-5.68527344 72.48429687 -5.68527344 72.48429687 -4.7265625 71.703125 C-0.9838471 68.01121569 -0.74002766 64.62908208 -0.68115234 59.48730469 C-0.67110672 58.84298492 -0.6610611 58.19866516 -0.65071106 57.53482056 C-0.61992177 55.41384744 -0.60285622 53.2930003 -0.5859375 51.171875 C-0.56722238 49.69784464 -0.5476487 48.22382495 -0.5272522 46.74981689 C-0.47596115 42.87669166 -0.43631938 39.00353171 -0.39910889 35.13024902 C-0.35905017 31.17528719 -0.30796637 27.22046942 -0.2578125 23.265625 C-0.1610891 15.51051556 -0.07667301 7.75533633 0 0 Z " fill="#F58219" transform="translate(10,222)"/>
<path d="M0 0 C0.66 0.33 1.32 0.66 2 1 C0.45892578 1.92619141 0.45892578 1.92619141 -1.11328125 2.87109375 C-17.89711264 12.50828172 -17.89711264 12.50828172 -30 27 C-31.52701437 33.37556365 -29.91014966 37.74299507 -26.6875 43.3125 C-25.47380764 45.21827689 -24.24529648 47.11472246 -23 49 C-20.13434769 53.39706742 -19.13652957 56.75893532 -20 62 C-22.71946549 68.62130728 -27.54690841 72.51401654 -33 77 C-33 74 -33 74 -32 72.25 C-30.45481975 68.77334443 -30.45491205 66.81561566 -31 63 C-33.50565671 58.34764302 -36.5783689 54.05854999 -39.578125 49.71484375 C-43.43693624 43.60505928 -44.02462591 38.13334801 -43 31 C-40.40586965 21.67079829 -32.5306868 15.68547813 -24.5625 10.9375 C-19.12446551 7.89859837 -13.49148719 5.34608525 -7.75 2.9375 C-7.01080322 2.62611084 -6.27160645 2.31472168 -5.51000977 1.99389648 C-3.69837535 1.26377795 -1.85108243 0.6233668 0 0 Z " fill="#F58218" transform="translate(125,43)"/>
<path d="M0 0 C0.33 1.32 0.66 2.64 1 4 C15.58741731 7.13587474 31.13002761 7.16526777 45.8125 4.6875 C52.86859291 3.61263403 57.22631181 4.86404067 63 9 C59.7380964 11.1746024 57.01429181 12.00025886 53.25 13.0625 C52.05890625 13.40410156 50.8678125 13.74570313 49.640625 14.09765625 C41.55768873 16.10104496 33.66365114 16.24671705 25.375 16.3125 C24.18003906 16.34150391 22.98507813 16.37050781 21.75390625 16.40039062 C11.15425905 16.47503603 1.20498189 15.16596001 -7 8 C-6.875 5.6875 -6.875 5.6875 -6 3 C-2.9375 1.1875 -2.9375 1.1875 0 0 Z " fill="#4E7896" transform="translate(51,162)"/>
<path d="M0 0 C-3.77596205 2.51730804 -7.7936791 3.69994638 -12.08203125 5.05664062 C-13.75266446 5.61877193 -15.38124543 6.30240372 -17 7 C-17.33 7.99 -17.66 8.98 -18 10 C-12.56307475 11.53167252 -7.64139125 12.2890867 -1.9765625 12.23046875 C-0.8676918 12.23052917 -0.8676918 12.23052917 0.26358032 12.23059082 C2.63424366 12.22723202 5.00443166 12.20844322 7.375 12.1875 C9.01432207 12.17863406 10.653645 12.16992694 12.29296875 12.16137695 C27.5095322 12.06070511 42.32755763 11.49408189 57.36914062 9.01635742 C61.29164654 8.37045251 65.00662202 7.81369636 69 8 C62.67344854 13.31430323 55.8297683 14.60456325 47.875 15.625 C47.01390625 15.74617187 46.1528125 15.86734375 45.265625 15.9921875 C32.90973632 17.66879776 20.59900774 18.20970366 8.14501953 18.24023438 C5.7668953 18.24993111 3.38964159 18.28107587 1.01171875 18.3125 C-6.91799508 18.36780358 -14.59359992 18.00102112 -22.421875 16.671875 C-23.12677063 16.55515442 -23.83166626 16.43843384 -24.55792236 16.31817627 C-28.404726 15.5886568 -31.09264984 14.65809557 -34 12 C-33.4375 10.1953125 -33.4375 10.1953125 -32 8 C-29.6425369 6.76822553 -27.47441726 5.79232429 -25 4.875 C-24.32517578 4.61638184 -23.65035156 4.35776367 -22.95507812 4.09130859 C-15.3620092 1.26290851 -8.12376949 -0.35320737 0 0 Z " fill="#4F7997" transform="translate(55,115)"/>
<path d="M0 0 C0.66 0.33 1.32 0.66 2 1 C1.67 2.32 1.34 3.64 1 5 C8.46402658 9.18087357 18.29303676 8.22087883 26.625 8.25 C27.69661377 8.25612305 28.76822754 8.26224609 29.87231445 8.26855469 C38.78178112 8.21909742 47.43689051 7.2671652 56.20751953 5.71582031 C63.99265959 4.47974331 63.99265959 4.47974331 67.67578125 6.796875 C68.44277344 7.52390625 69.20976563 8.2509375 70 9 C70 9.66 70 10.32 70 11 C55.3144831 14.9105909 41.25854064 16.51087794 26.125 16.5 C25.35522827 16.50394775 24.58545654 16.50789551 23.7923584 16.51196289 C0.57949607 16.5688966 0.57949607 16.5688966 -7 10 C-7.8125 7.3125 -7.8125 7.3125 -8 5 C-6.71475739 4.13619741 -5.42157581 3.28419631 -4.125 2.4375 C-3.04605469 1.72400391 -3.04605469 1.72400391 -1.9453125 0.99609375 C-1.30335937 0.66738281 -0.66140625 0.33867187 0 0 Z " fill="#4E7896" transform="translate(46,139)"/>
<path d="M0 0 C0 3 0 3 -2.6875 5.875 C-21.16309784 20.51057162 -50.43115044 18.37093405 -72.5625 18.375 C-73.68874786 18.37690338 -74.81499573 18.37880676 -75.97537231 18.38076782 C-91.92037114 18.37772375 -107.49897527 18.08096282 -123 14 C-123 13.67 -123 13.34 -123 13 C-122.2670874 13.07001221 -121.5341748 13.14002441 -120.77905273 13.2121582 C-109.94401244 14.12347155 -99.13967833 14.18613124 -88.2722168 14.18530273 C-85.09995795 14.18747436 -81.92805639 14.20564957 -78.75585938 14.22460938 C-60.96031979 14.27494536 -42.66973454 14.0263763 -25.3125 9.6875 C-24.41168701 9.47311279 -23.51087402 9.25872559 -22.58276367 9.0378418 C-14.58961235 7.05811168 -6.90279809 4.6018654 0 0 Z " fill="#4F7997" transform="translate(157,190)"/>
<path d="M0 0 C5.89698683 1.67081294 9.9923195 4.65656762 13 10 C14.07538384 14.4866424 13.25582454 19.08585497 11.21484375 23.21484375 C5.27600141 31.94169568 -5.18238311 37.67413435 -15.39453125 39.66015625 C-16.25433594 39.77230469 -17.11414063 39.88445312 -18 40 C-14.99401023 37.55763331 -11.95007946 35.16703501 -8.875 32.8125 C-8.21242187 32.30332031 -7.54984375 31.79414063 -6.8671875 31.26953125 C-5 30 -5 30 -2 29 C-0.93283296 27.20067421 -0.93283296 27.20067421 0 25 C0.53625 24.29875 1.0725 23.5975 1.625 22.875 C3.66490943 18.60973482 3.68760353 14.64514386 3 10 C1.22553637 6.84539798 -0.15549616 5.49262724 -3.25 3.6875 C-6.93567468 2.76608133 -10.20394503 2.87132017 -14 3 C-9.53159381 -0.8828909 -5.68492474 -0.623848 0 0 Z " fill="#507997" transform="translate(145,113)"/>
<path d="M0 0 C1.74216797 0.05414063 1.74216797 0.05414063 3.51953125 0.109375 C4.39996094 0.15578125 5.28039062 0.2021875 6.1875 0.25 C6.66320715 4.02262202 6.87300561 7.49553849 6.1875 11.25 C3.13287169 14.83652877 -0.50541497 16.04891 -5.0625 16.75 C-9.72246785 15.90273312 -9.72246785 15.90273312 -11.8125 13.25 C-12.44417283 10.13296027 -12.67034184 7.32437728 -11.8125 4.25 C-8.08720053 0.24185372 -5.35466407 -0.21635006 0 0 Z " fill="#FEFAF8" transform="translate(138.8125,264.75)"/>
<path d="M0 0 C2.908125 0.0309375 2.908125 0.0309375 5.875 0.0625 C5.875 4.0225 5.875 7.9825 5.875 12.0625 C-1.95538502 17.07394641 -1.95538502 17.07394641 -7.125 16.0625 C-10.48844489 13.57647551 -11.92557749 12.14824477 -12.6875 8 C-12.00678485 4.44515419 -10.92427541 3.285454 -8.125 1.0625 C-5.36047967 -0.31976016 -3.0788637 -0.03275387 0 0 Z " fill="#FEFAF8" transform="translate(49.125,264.9375)"/>
<path d="M0 0 C1.16136475 0.09849243 1.16136475 0.09849243 2.34619141 0.19897461 C13.01762827 1.03829244 23.67634844 1.32158367 34.375 1.5625 C36.19011141 1.60581737 38.00521567 1.64943521 39.8203125 1.69335938 C44.21346719 1.7990288 48.60669781 1.90066039 53 2 C53 2.33 53 2.66 53 3 C34.57284678 4.72479562 18.01957002 5.68350058 0 1 C0 0.67 0 0.34 0 0 Z " fill="#5C839E" transform="translate(34,203)"/>
<path d="M0 0 C0.99 0.99 1.98 1.98 3 3 C-10.86 3 -24.72 3 -39 3 C-39 2.67 -39 2.34 -39 2 C-6.18210304 -0.90683846 -6.18210304 -0.90683846 0 0 Z " fill="#447291" transform="translate(101,205)"/>
<path d="M0 0 C-3.0333779 2.02225194 -5.61344489 2.99347524 -9.0625 4.125 C-10.12597656 4.47820312 -11.18945312 4.83140625 -12.28515625 5.1953125 C-15 6 -15 6 -17 6 C-17 4.68 -17 3.36 -17 2 C-11.23918159 0.7017874 -5.91260345 -0.25706972 0 0 Z " fill="#58809C" transform="translate(55,115)"/>
<path d="M0 0 C2.97 0 5.94 0 9 0 C10.36421031 2.72842061 9.87807211 4.60953318 9.5625 7.625 C9.46066406 8.62789063 9.35882813 9.63078125 9.25390625 10.6640625 C9.17011719 11.43492187 9.08632813 12.20578125 9 13 C8.67 13 8.34 13 8 13 C8 9.37 8 5.74 8 2 C5.36 2 2.72 2 0 2 C0 1.34 0 0.68 0 0 Z " fill="#F79D53" transform="translate(47,263)"/>
<path d="M0 0 C1.258125 -0.020625 2.51625 -0.04125 3.8125 -0.0625 C4.52019531 -0.07410156 5.22789063 -0.08570313 5.95703125 -0.09765625 C8 0 8 0 11 1 C11 1.66 11 2.32 11 3 C11.99 3.33 12.98 3.66 14 4 C8.34605369 4.34615998 4.96993194 3.43425238 0 1 C0 0.67 0 0.34 0 0 Z " fill="#688BA4" transform="translate(97,204)"/>
<path d="M0 0 C3.63 0 7.26 0 11 0 C10.67 1.32 10.34 2.64 10 4 C10 3.34 10 2.68 10 2 C5.545 2.495 5.545 2.495 1 3 C0.67 2.01 0.34 1.02 0 0 Z " fill="#F6933A" transform="translate(71,239)"/>
<path d="M0 0 C-3.63 1.98 -7.26 3.96 -11 6 C-10 2 -10 2 -8.22265625 0.91796875 C-7.15337891 0.55638672 -7.15337891 0.55638672 -6.0625 0.1875 C-5.35222656 -0.06644531 -4.64195313 -0.32039063 -3.91015625 -0.58203125 C-2 -1 -2 -1 0 0 Z " fill="#F68E34" transform="translate(127,44)"/>
<path d="M0 0 C2.31 0 4.62 0 7 0 C6.67 1.32 6.34 2.64 6 4 C3.03 3.505 3.03 3.505 0 3 C0 2.01 0 1.02 0 0 Z " fill="#577F9B" transform="translate(121,190)"/>
<path d="M0 0 C-2.38573379 1.89213369 -4.07175348 3.02391783 -7 4 C-9.6875 3.0625 -9.6875 3.0625 -12 2 C-12 1.67 -12 1.34 -12 1 C-7.95858806 0.36605303 -4.0934693 -0.12404452 0 0 Z " fill="#7393AB" transform="translate(124,123)"/>
<path d="M0 0 C0 3.14668286 -0.52735129 4.31458176 -2 7 C-2.33 7.66 -2.66 8.32 -3 9 C-3.66 7.68 -4.32 6.36 -5 5 C-3.35 3.35 -1.7 1.7 0 0 Z " fill="#5C829E" transform="translate(9,183)"/>
<path d="M0 0 C1.98 0 3.96 0 6 0 C6 0.99 6 1.98 6 3 C4.35 3 2.7 3 1 3 C0.67 2.01 0.34 1.02 0 0 Z " fill="#487594" transform="translate(110,125)"/>
</svg>
