<?xml version="1.0" encoding="UTF-8"?>
<svg version="1.1" xmlns="http://www.w3.org/2000/svg" width="238" height="212">
<path d="M0 0 C78.54 0 157.08 0 238 0 C238 69.96 238 139.92 238 212 C159.46 212 80.92 212 0 212 C0 142.04 0 72.08 0 0 Z " fill="#80E1FB" transform="translate(0,0)"/>
<path d="M0 0 C0.33 0 0.66 0 1 0 C1 33.66 1 67.32 1 102 C-20.78 102 -42.56 102 -65 102 C-62 100 -62 100 -60.1328125 98.9921875 C-53.18228889 95.12477553 -49.39102316 89.57157335 -47 82 C-43.79337204 67.07503309 -45.67763482 50.73310751 -49 36 C-48.12601563 35.65388672 -48.12601563 35.65388672 -47.234375 35.30078125 C-44.48665129 34.20774021 -41.743405 33.10383399 -39 32 C-38.02675781 31.61457031 -37.05351562 31.22914063 -36.05078125 30.83203125 C-22.41222827 25.32312554 -9.25424248 19.3869409 -2 6 C-0.63206325 2.66273623 -0.63206325 2.66273623 0 0 Z " fill="#FEFEFE" transform="translate(237,110)"/>
<path d="M0 0 C0.66 1.32 1.32 2.64 2 4 C4.8119044 8.96276461 7.69066965 13.19175458 12 17 C12.49371094 17.44730469 12.98742188 17.89460938 13.49609375 18.35546875 C22.8246185 26.10500045 35.35899722 30.86253452 46.875 34.2109375 C49 35 49 35 50 37 C49.56682821 39.23855912 49.07619906 41.46603697 48.5625 43.6875 C47.08119347 50.78401102 46.69158427 57.69608723 46.6875 64.9375 C46.68242432 65.89551514 46.67734863 66.85353027 46.67211914 67.84057617 C46.77550753 78.56782028 48.58001998 88.43353403 56.3125 96.375 C59.76469073 98.46237114 63.17920691 99.7048159 67 101 C67 101.33 67 101.66 67 102 C44.89 102 22.78 102 0 102 C0 68.34 0 34.68 0 0 Z " fill="#FEFEFE" transform="translate(0,110)"/>
<path d="M0 0 C21.45 0 42.9 0 65 0 C65 33.66 65 67.32 65 102 C64.34 100.68 63.68 99.36 63 98 C53.58091773 79.28912036 33.68202092 72.55858181 15 66 C15.2165625 64.96746094 15.433125 63.93492188 15.65625 62.87109375 C17.42079977 53.84623327 18.30061098 45.07784516 18.3125 35.875 C18.31765625 34.91650146 18.3228125 33.95800293 18.328125 32.97045898 C18.23843027 23.81599082 16.83090557 14.19897456 10.359375 7.234375 C7.15545676 4.36477866 4.17227064 2.26432444 0 1 C0 0.67 0 0.34 0 0 Z " fill="#FEFEFE" transform="translate(173,0)"/>
<path d="M0 0 C21.45 0 42.9 0 65 0 C63.1000854 1.26660973 61.16462771 2.48265955 59.1875 3.625 C52.46317295 8.6352829 48.86323355 14.88320768 47 23 C46.59110468 26.98909447 46.57311539 30.9303407 46.625 34.9375 C46.63080078 36.02474365 46.63660156 37.1119873 46.64257812 38.23217773 C46.79281439 47.69775767 48.01716627 56.7585785 50 66 C49.42145264 66.21092285 48.84290527 66.4218457 48.24682617 66.63916016 C27.17735862 74.36595922 10.4449835 81.11003301 0 102 C0 68.34 0 34.68 0 0 Z " fill="#FEFEFE" transform="translate(0,0)"/>
<path d="M0 0 C0.2266333 0.59949463 0.4532666 1.19898926 0.68676758 1.81665039 C1.72710431 4.56586551 2.76978431 7.31418633 3.8125 10.0625 C4.16892578 11.00544922 4.52535156 11.94839844 4.89257812 12.91992188 C5.24384766 13.84482422 5.59511719 14.76972656 5.95703125 15.72265625 C6.30072754 16.63160645 6.64442383 17.54055664 6.99853516 18.47705078 C7.85841969 20.64332255 8.8104289 22.712351 9.82421875 24.80859375 C11.76868539 30.08643177 9.99293001 34.45439246 7.96875 39.51171875 C7.57042969 40.51654297 7.17210937 41.52136719 6.76171875 42.55664062 C6.34535156 43.58982422 5.92898437 44.62300781 5.5 45.6875 C4.67657729 47.75370466 3.85363831 49.82010217 3.03125 51.88671875 C2.48307617 53.25123169 2.48307617 53.25123169 1.92382812 54.64331055 C1.23141051 56.40967081 0.59995589 58.20013232 0 60 C-15.04798612 56.35649155 -32.02306167 50.51546477 -41 37 C-43.43743545 32.76098182 -43.15703589 29.71078899 -42 25 C-34.97188415 11.50601757 -18.71269762 5.41706868 -5.13671875 0.59375 C-3 0 -3 0 0 0 Z " fill="#FDFEFE" transform="translate(53,76)"/>
<path d="M0 0 C12.26994308 4.67113114 22.7200836 13.29007752 32.1640625 22.234375 C27.88264487 28.15178148 23.26374683 33.74658375 18.53125 39.3046875 C16.0649748 42.14625427 16.0649748 42.14625427 14.5234375 45.48828125 C10.89558086 49.71077003 6.88865317 49.56022565 1.5390625 50.046875 C0.59160156 50.15451172 -0.35585937 50.26214844 -1.33203125 50.37304688 C-4.16455441 50.68884802 -6.99856836 50.96594869 -9.8359375 51.234375 C-11.73966169 51.42500032 -13.64331267 51.61635878 -15.546875 51.80859375 C-16.97653689 51.95077855 -18.40621424 52.09280858 -19.8359375 52.234375 C-22.73941345 43.01899482 -24.04492293 34.52073478 -24.1484375 24.859375 C-24.17744141 23.96476562 -24.20644531 23.07015625 -24.23632812 22.1484375 C-24.31096292 14.24863137 -22.45147647 8.22356239 -17.2109375 2.234375 C-12.08046327 -2.08602436 -6.30582983 -1.70240034 0 0 Z " fill="#FDFEFE" transform="translate(79.8359375,10.765625)"/>
<path d="M0 0 C6.57231634 1.67977691 12.9179931 3.49832664 19.125 6.25 C19.80804199 6.55228516 20.49108398 6.85457031 21.19482422 7.16601562 C26.77588993 9.72781628 31.53138345 12.75006043 36 17 C36.60585937 17.56589844 37.21171875 18.13179687 37.8359375 18.71484375 C41.14163944 22.13694364 42.99569489 25.14127689 43.21875 29.96484375 C42.47285873 36.9042965 38.04839374 41.65801644 32.87890625 45.984375 C24.26355663 52.01628871 10.67234041 60 0 60 C-0.26216309 59.29391602 -0.52432617 58.58783203 -0.79443359 57.86035156 C-1.98564623 54.65603697 -3.18028455 51.45301014 -4.375 48.25 C-4.7875 47.13882813 -5.2 46.02765625 -5.625 44.8828125 C-6.02460938 43.81289062 -6.42421875 42.74296875 -6.8359375 41.640625 C-7.20251465 40.65610352 -7.5690918 39.67158203 -7.94677734 38.65722656 C-8.89518364 36.04925881 -8.89518364 36.04925881 -10.19775391 34.02246094 C-12.07157246 29.29856777 -9.46143298 24.19252483 -7.71484375 19.7265625 C-7.26689453 18.57285156 -6.81894531 17.41914062 -6.35742188 16.23046875 C-5.88884766 15.04066406 -5.42027344 13.85085937 -4.9375 12.625 C-4.46505859 11.41199219 -3.99261719 10.19898437 -3.50585938 8.94921875 C-2.34236751 5.96409821 -1.17359708 2.98115892 0 0 Z " fill="#FDFEFE" transform="translate(185,76)"/>
<path d="M0 0 C4.43201617 12.71669999 5.13848946 30.90645673 1.125 43.71875 C-1.05644516 48.14223601 -4.66077961 50.83038981 -9 53 C-21.09072355 54.07952889 -32.70753581 47.1169489 -41.84375 39.6875 C-45.69045762 36.24809084 -49.36431457 32.6604742 -53 29 C-52.47792969 28.45214844 -51.95585938 27.90429688 -51.41796875 27.33984375 C-50.31388672 26.15068359 -50.31388672 26.15068359 -49.1875 24.9375 C-48.34316406 24.03644531 -47.49882812 23.13539063 -46.62890625 22.20703125 C-44.67468448 19.97718678 -43.26506815 17.76691291 -41.90234375 15.13671875 C-38.84909455 9.57161985 -36.19383512 5.08613785 -29.93310547 2.95703125 C-22.94468497 1.4203003 -15.8918224 0.70127896 -8.75805664 0.24267578 C-6.06097443 0.08347986 -6.06097443 0.08347986 -3.75561523 -0.59033203 C-2 -1 -2 -1 0 0 Z " fill="#FDFEFE" transform="translate(179,149)"/>
<path d="M0 0 C6.08021496 5.79068092 7.42122408 12.35301455 7.74609375 20.55859375 C7.94608732 31.11119551 7.20613815 41.5089255 3.625 51.5 C2.04525391 51.31824219 2.04525391 51.31824219 0.43359375 51.1328125 C-0.25645752 51.05401855 -0.94650879 50.97522461 -1.6574707 50.89404297 C-3.19493695 50.71262228 -4.73126487 50.52131712 -6.26635742 50.32080078 C-10.00890009 49.83975417 -13.64578551 49.45055927 -17.421875 49.484375 C-26.45549848 49.2219876 -26.45549848 49.2219876 -30.05957031 45.98876953 C-33.47940439 42.10036714 -36.27301777 37.81741924 -39.06005859 33.46435547 C-41.74021121 29.46054783 -45.07479338 25.99433642 -48.375 22.5 C-45.110647 17.96155003 -41.31685484 14.85966047 -36.875 11.5625 C-35.81792847 10.7729895 -35.81792847 10.7729895 -34.73950195 9.9675293 C-24.89835267 2.77459241 -12.36638016 -5.49616896 0 0 Z " fill="#FDFEFE" transform="translate(174.375,11.5)"/>
<path d="M0 0 C26.57288615 -0.61351541 26.57288615 -0.61351541 35.24951172 5.61474609 C38.83937684 9.31509791 41.38334368 13.57357155 43.86230469 18.06787109 C45.50124501 20.851256 47.5586885 23.1392572 49.75 25.5 C50.38421875 26.1909375 51.0184375 26.881875 51.671875 27.59375 C52.11015625 28.0578125 52.5484375 28.521875 53 29 C51.35722753 30.69576513 49.69104051 32.35283083 48 34 C47.3915625 34.60457031 46.783125 35.20914063 46.15625 35.83203125 C36.99615261 44.49652635 25.00043464 52.09995654 12.25 53.375 C7.54857065 52.83252738 5.22098048 51.18506929 1.875 47.9375 C-6.00406117 35.59363751 -3.54923778 19.6579601 -1 6 C-0.66365783 4.0005038 -0.32948194 2.00063809 0 0 Z " fill="#FDFEFE" transform="translate(59,149)"/>
<path d="M0 0 C5.52791722 3.20619199 9.97626818 7.68803979 12.125 13.8125 C13.04243956 20.01216731 12.63559542 25.55751777 9.45703125 31.02734375 C5.73154354 36.02015279 1.30659533 39.55094993 -4.875 40.8125 C-10.73169405 41.28481404 -15.75583116 40.89830637 -20.875 37.8125 C-25.73881475 33.39779977 -29.22623213 28.87353737 -30.28125 22.26953125 C-30.54922302 14.7104589 -28.6785487 9.67261156 -23.875 3.8125 C-17.5145323 -1.95310381 -7.95981796 -3.10327705 0 0 Z " fill="#61DAFB" transform="translate(127.875,86.1875)"/>
<path d="M0 0 C3.20299264 1.41643452 5.36084202 3.14127782 7.875 5.5625 C17.46598899 14.23855912 30.09588245 22.79180876 43 25 C43 25.33 43 25.66 43 26 C15.28 26 -12.44 26 -41 26 C-37.82102258 24.41051129 -34.73800752 23.10018136 -31.4375 21.8125 C-19.62844554 16.89683777 -8.87532728 9.22566914 0 0 Z " fill="#FDFEFE" transform="translate(118,186)"/>
<path d="M0 0 C27.72 0 55.44 0 84 0 C84 0.33 84 0.66 84 1 C83.21238281 1.1959375 82.42476563 1.391875 81.61328125 1.59375 C66.42785368 5.76300349 53.92469369 14.79777367 43 26 C39.55957724 24.51330148 37.30757914 22.53310132 34.625 19.9375 C24.81174524 10.96372721 13.24143509 3.42022715 0 1 C0 0.67 0 0.34 0 0 Z " fill="#FCFEFE" transform="translate(77,0)"/>
<path d="M0 0 C9.24 0 18.48 0 28 0 C21.25 9 21.25 9 18.125 12.5 C17.23167969 13.50546875 17.23167969 13.50546875 16.3203125 14.53125 C15.88460937 15.0159375 15.44890625 15.500625 15 16 C10.55394785 14.40153839 8.15028385 10.97341036 5.25 7.4375 C4.74339844 6.83486328 4.23679687 6.23222656 3.71484375 5.61132812 C0 1.15051171 0 1.15051171 0 0 Z " fill="#F6FCFE" transform="translate(105,154)"/>
<path d="M0 0 C3.18080224 2.62113029 4.25032955 5.63525626 5.6875 9.4375 C6.34298828 11.13712891 6.34298828 11.13712891 7.01171875 12.87109375 C8 16 8 16 8 20 C5.43850372 20.50567729 2.87600535 21.00470132 0.3125 21.5 C-0.40873047 21.64308594 -1.12996094 21.78617188 -1.87304688 21.93359375 C-5.63841359 22.65571887 -9.14473813 23.1824976 -13 23 C-8.82758112 15.23593849 -4.47813934 7.59163858 0 0 Z " fill="#F8FDFE" transform="translate(167,119)"/>
<path d="M0 0 C3.52771899 1.17590633 3.71219328 1.7490785 5.41015625 4.89453125 C5.84263672 5.68537109 6.27511719 6.47621094 6.72070312 7.29101562 C7.16349609 8.12310547 7.60628906 8.95519531 8.0625 9.8125 C8.50916016 10.63298828 8.95582031 11.45347656 9.41601562 12.29882812 C11.33642744 15.83824184 13.21271208 19.39133697 15 23 C7.80729161 22.53752467 0.9969173 21.74922933 -6 20 C-4.63125844 13.04223041 -2.5466871 6.61396893 0 0 Z " fill="#F8FDFE" transform="translate(69,119)"/>
<path d="M0 0 C-0.51949219 0.90621094 -1.03898437 1.81242187 -1.57421875 2.74609375 C-5.42684075 9.47339291 -9.26248351 16.20778253 -13 23 C-16.37478448 20.3080898 -17.30155263 16.99552395 -18.6875 13 C-19.12449219 11.7625 -19.56148438 10.525 -20.01171875 9.25 C-21 6 -21 6 -21 3 C-18.81462633 2.49078672 -16.62657569 1.99305563 -14.4375 1.5 C-12.61025391 1.08234375 -12.61025391 1.08234375 -10.74609375 0.65625 C-7.07777293 0.01362446 -3.71497397 -0.11474823 0 0 Z " fill="#F9FDFE" transform="translate(84,70)"/>
<path d="M0 0 C7.19270839 0.46247533 14.0030827 1.25077067 21 3 C19.72104338 9.60794255 18.06466711 15.96643662 15 22 C14.34 22.33 13.68 22.66 13 23 C11.01996027 19.54216583 9.04111656 16.08364869 7.0625 12.625 C6.49853516 11.64015625 5.93457031 10.6553125 5.35351562 9.640625 C4.81533203 8.69960937 4.27714844 7.75859375 3.72265625 6.7890625 C3.22515869 5.91975098 2.72766113 5.05043945 2.21508789 4.15478516 C1.44418663 2.78770167 0.70188404 1.40376807 0 0 Z " fill="#F9FDFE" transform="translate(154,70)"/>
<path d="M0 0 C0.66 0 1.32 0 2 0 C3.54331236 1.67216576 5.01114909 3.41451538 6.4375 5.1875 C7.21996094 6.15042969 8.00242187 7.11335938 8.80859375 8.10546875 C11 11 11 11 14 16 C5.42 16 -3.16 16 -12 16 C-9.6381645 12.0636075 -7.31246258 8.72555115 -4.4375 5.1875 C-3.65246094 4.21167969 -2.86742188 3.23585937 -2.05859375 2.23046875 C-1.37925781 1.49441406 -0.69992188 0.75835937 0 0 Z " fill="#FCFEFE" transform="translate(118,41)"/>
</svg>
