<?xml version="1.0" encoding="UTF-8"?>
<svg version="1.1" xmlns="http://www.w3.org/2000/svg" width="330" height="372">
<path d="M0 0 C0.67804688 -0.020625 1.35609375 -0.04125 2.0546875 -0.0625 C11.69916914 -0.13584207 18.93194923 4.60417969 27 9.4375 C29.13988879 10.70306856 31.28054555 11.9673393 33.421875 13.23046875 C34.53755859 13.88966309 35.65324219 14.54885742 36.80273438 15.22802734 C42.00275193 18.27806597 47.23979672 21.26208964 52.47967529 24.24285889 C62.79512169 30.11133608 73.07289406 36.04091952 83.31689453 42.03344727 C90.57211851 46.27617346 97.84364057 50.48979275 105.125 54.6875 C106.19451904 55.30439697 107.26403809 55.92129395 108.3659668 56.55688477 C113.4135406 59.46701 118.46312677 62.37355177 123.5177002 65.27149963 C125.27480482 66.27921959 127.03129524 67.2880018 128.78759766 68.29711914 C130.97745055 69.5549558 133.16844441 70.8108092 135.36083984 72.06420898 C161.44364106 87.05689959 161.44364106 87.05689959 165.25 100.25 C165.83109574 105.77609532 165.79789358 111.2779796 165.76757812 116.82617188 C165.77300541 118.49761055 165.78013146 120.16904444 165.78881836 121.84046936 C165.80698267 126.359112 165.80001282 130.87738746 165.78730202 135.39603615 C165.7771385 140.13638893 165.78657698 144.87671135 165.79284668 149.61706543 C165.80011335 157.57598484 165.79056116 165.53475554 165.77148438 173.49365234 C165.74971752 182.68064846 165.75676958 191.86728943 165.77879 201.05427694 C165.79697198 208.95774918 165.79948866 216.86111482 165.78903532 224.76460123 C165.78281576 229.47813134 165.78192231 234.19149479 165.79518127 238.90501404 C165.80677998 243.33751903 165.79864107 247.76956842 165.77560425 252.20202446 C165.77033855 253.82370181 165.77179411 255.44541785 165.78065491 257.06707954 C165.83840542 268.7147565 164.63297624 277.59863313 156.4296875 286.3125 C152.50165544 289.80408405 148.08337789 292.35254379 143.53027344 294.94921875 C140.85851318 296.47332353 138.19895002 298.01776924 135.5390625 299.5625 C130.51881201 302.47262747 125.49057879 305.36857618 120.45835876 308.25794983 C114.38365341 311.7462082 108.31672925 315.2478949 102.25 318.75 C100.08336859 320.00006112 97.91670186 321.250061 95.75 322.5 C94.6775 323.11875 93.605 323.7375 92.5 324.375 C82.75 330 82.75 330 79.49902344 331.87548828 C77.33552524 333.12371034 75.17211357 334.37208239 73.00878906 335.62060547 C67.54434983 338.77405256 62.07836355 341.92476096 56.609375 345.0703125 C55.51496094 345.7003418 54.42054688 346.33037109 53.29296875 346.97949219 C51.11389605 348.23381606 48.93421725 349.48708763 46.75390625 350.73925781 C41.49607449 353.76683389 36.2653896 356.82940101 31.078125 359.9765625 C30.09489258 360.57001465 29.11166016 361.1634668 28.09863281 361.77490234 C26.26919867 362.88278558 24.4451099 363.99957146 22.62792969 365.12744141 C13.37380421 370.72216143 3.8131847 374.01999274 -7.0390625 371.77685547 C-13.93427088 369.82965093 -19.65199394 366.71189649 -25.75 363 C-27.87711424 361.73225052 -30.00473601 360.46535231 -32.1328125 359.19921875 C-33.22368164 358.54614746 -34.31455078 357.89307617 -35.43847656 357.22021484 C-40.80216863 354.02904742 -46.21377796 350.92215329 -51.625 347.8125 C-53.81000586 346.55357637 -55.99490118 345.29446085 -58.1796875 344.03515625 C-59.26475586 343.41012207 -60.34982422 342.78508789 -61.46777344 342.14111328 C-66.89659942 339.01319852 -72.32319281 335.88141552 -77.75 332.75 C-79.91665583 331.49998121 -82.0833225 330.24998122 -84.25 329 C-90.75 325.25 -90.75 325.25 -97.25 321.5 C-98.3237085 320.88060547 -99.39741699 320.26121094 -100.50366211 319.62304688 C-102.65830624 318.379877 -104.81276757 317.13639025 -106.96704102 315.89257812 C-111.97754121 313.00016853 -116.98962635 310.11064773 -122.00863647 307.23303223 C-123.76728749 306.22451686 -125.52533209 305.2149523 -127.28320312 304.20507812 C-129.47472231 302.94649482 -131.66734504 301.68983013 -133.86132812 300.43554688 C-159.95361294 285.43709157 -159.95361294 285.43709157 -164.11158562 273.94988251 C-165.58191896 267.73177811 -165.19263811 261.19483975 -165.18579102 254.83496094 C-165.19477726 253.16853665 -165.20498749 251.50211858 -165.21632385 249.83570862 C-165.24274165 245.32515623 -165.24985388 240.81477477 -165.25177121 236.30415249 C-165.25390871 233.48112415 -165.26032301 230.65813879 -165.26826286 227.83512115 C-165.29599036 217.97224689 -165.30827179 208.10949398 -165.3059082 198.24658203 C-165.30410715 189.0760394 -165.33574491 179.9060269 -165.38313919 170.73561835 C-165.42246438 162.84316529 -165.43845575 154.95088479 -165.43654197 147.05833459 C-165.43577983 142.35294698 -165.44417623 137.64803076 -165.47607613 132.94274139 C-165.5052873 128.51339733 -165.50524477 124.08496982 -165.48352623 119.65559196 C-165.48040918 118.03837927 -165.48735503 116.42110782 -165.5056076 114.80399513 C-165.62026321 103.93407879 -164.39396973 94.56327697 -156.8203516 86.0915184 C-151.98533642 81.46321459 -146.0964761 78.3521847 -140.25 75.1875 C-138.19314091 74.04974758 -136.13717866 72.9103726 -134.08203125 71.76953125 C-133.03225098 71.18896973 -131.9824707 70.6084082 -130.90087891 70.01025391 C-125.87245395 67.20109972 -120.90504023 64.29006872 -115.9375 61.375 C-104.33127734 54.5799604 -92.68606091 47.85409567 -81.03222656 41.14111328 C-75.60340056 38.01319851 -70.17682059 34.88139233 -64.75 31.75 C-62.59896371 30.50910526 -60.44792203 29.26821986 -58.296875 28.02734375 C-52.65898612 24.77478082 -47.02203609 21.52059354 -41.38525391 18.26611328 C-38.10404172 16.37254196 -34.82165625 14.48101877 -31.5390625 12.58984375 C-28.07019972 10.59100018 -24.60565615 8.58531638 -21.1484375 6.56640625 C-20.16762207 5.99684204 -20.16762207 5.99684204 -19.16699219 5.41577148 C-17.53921684 4.47037553 -15.91399365 3.52058869 -14.2890625 2.5703125 C-9.5794282 0.12130266 -5.24761388 0.03901572 0 0 Z " fill="#659AD2" transform="translate(164.75,-0.25)"/>
<path d="M0 0 C2.42248135 4.99909159 3.37663912 8.62569583 3.38768005 14.27304077 C3.39575836 15.31991827 3.39575836 15.31991827 3.40399987 16.38794482 C3.41821904 18.70852035 3.41119101 21.02852056 3.40405273 23.34912109 C3.40975953 25.02026322 3.41672499 26.69140145 3.42485046 28.36253357 C3.44276405 32.88949489 3.44161674 37.41626218 3.43590808 41.94324827 C3.43281324 45.72792024 3.43891205 49.5125551 3.44494683 53.29722178 C3.4589849 62.22910385 3.45743709 71.16089027 3.44604492 80.09277344 C3.43456764 89.29448555 3.44863444 98.49590606 3.4754414 107.69757974 C3.49762439 115.60949417 3.50422982 123.52131725 3.49836498 131.43326056 C3.49500003 136.15353925 3.4973796 140.8736311 3.51461601 145.59388351 C3.53012427 150.0345507 3.52608676 154.47478728 3.50731087 158.9154377 C3.50363553 160.54034533 3.50670257 162.16528514 3.51719666 163.79016304 C3.58673293 175.4520394 2.3934708 184.33748537 -5.8203125 193.0625 C-9.74834456 196.55408405 -14.16662211 199.10254379 -18.71972656 201.69921875 C-21.39148682 203.22332353 -24.05104998 204.76776924 -26.7109375 206.3125 C-31.73118799 209.22262747 -36.75942121 212.11857618 -41.79164124 215.00794983 C-47.86634659 218.4962082 -53.93327075 221.9978949 -60 225.5 C-62.16663141 226.75006112 -64.33329814 228.000061 -66.5 229.25 C-67.5725 229.86875 -68.645 230.4875 -69.75 231.125 C-79.5 236.75 -79.5 236.75 -82.75097656 238.62548828 C-84.91447476 239.87371034 -87.07788643 241.12208239 -89.24121094 242.37060547 C-94.70565017 245.52405256 -100.17163645 248.67476096 -105.640625 251.8203125 C-107.28224609 252.76535645 -107.28224609 252.76535645 -108.95703125 253.72949219 C-111.13610395 254.98381606 -113.31578275 256.23708763 -115.49609375 257.48925781 C-120.75392551 260.51683389 -125.9846104 263.57940101 -131.171875 266.7265625 C-132.15510742 267.32001465 -133.13833984 267.9134668 -134.15136719 268.52490234 C-135.98080133 269.63278558 -137.8048901 270.74957146 -139.62207031 271.87744141 C-148.87619579 277.47216143 -158.4368153 280.76999274 -169.2890625 278.52685547 C-176.18427088 276.57965093 -181.90199394 273.46189649 -188 269.75 C-190.12711424 268.48225052 -192.25473601 267.21535231 -194.3828125 265.94921875 C-195.47368164 265.29614746 -196.56455078 264.64307617 -197.68847656 263.97021484 C-203.05216863 260.77904742 -208.46377796 257.67215329 -213.875 254.5625 C-216.06000586 253.30357637 -218.24490118 252.04446085 -220.4296875 250.78515625 C-222.05729004 249.84760498 -222.05729004 249.84760498 -223.71777344 248.89111328 C-229.14659942 245.76319852 -234.57319281 242.63141552 -240 239.5 C-242.16665583 238.24998121 -244.3333225 236.99998122 -246.5 235.75 C-253 232 -253 232 -259.5 228.25 C-260.5737085 227.63060547 -261.64741699 227.01121094 -262.75366211 226.37304688 C-264.90830624 225.129877 -267.06276757 223.88639025 -269.21704102 222.64257812 C-274.22754121 219.75016853 -279.23962635 216.86064773 -284.25863647 213.98303223 C-286.01728749 212.97451686 -287.77533209 211.9649523 -289.53320312 210.95507812 C-291.72472231 209.69649482 -293.91734504 208.43983013 -296.11132812 207.18554688 C-317.80191827 194.71728857 -317.80191827 194.71728857 -323 187 C-323 186.34 -323 185.68 -323 185 C-322.36835938 184.64921387 -321.73671875 184.29842773 -321.0859375 183.93701172 C-308.12656489 176.73139514 -295.23606849 169.43424529 -282.4453125 161.93261719 C-274.35123139 157.18939898 -266.19959562 152.55801051 -258 148 C-255.00184753 150.84559161 -252.61461067 153.80180745 -250.25 157.1875 C-233.94336424 179.73605312 -209.00854917 195.9041209 -181.359375 200.62109375 C-166.15273127 202.89404697 -151.9638591 202.6852574 -137 199 C-136.07058594 198.79503906 -135.14117187 198.59007812 -134.18359375 198.37890625 C-108.98131581 192.33186191 -85.219343 175.68408559 -71.05078125 154.01953125 C-69.64932955 151.70337914 -68.29395324 149.37750757 -67 147 C-67.69730225 146.74114014 -68.39460449 146.48228027 -69.11303711 146.21557617 C-72.2976411 144.8746761 -75.19546045 143.27276801 -78.19140625 141.55078125 C-79.07033791 141.04722359 -79.07033791 141.04722359 -79.96702576 140.53349304 C-81.83394271 139.4628585 -83.69822099 138.38771995 -85.5625 137.3125 C-86.78694388 136.60973762 -88.011552 135.90726131 -89.23632812 135.20507812 C-90.45059103 134.50793475 -91.66478411 133.81066974 -92.87890625 133.11328125 C-93.77314804 132.60004807 -93.77314804 132.60004807 -94.68545532 132.07644653 C-97.62971934 130.38206665 -100.56109168 128.67029757 -103.47216797 126.91943359 C-104.54225098 126.2795752 -105.61233398 125.6397168 -106.71484375 124.98046875 C-108.1378479 124.11844849 -108.1378479 124.11844849 -109.58959961 123.23901367 C-111.99299045 121.77141657 -111.99299045 121.77141657 -115 122 C-116.6393556 123.76237052 -116.6393556 123.76237052 -118.1875 126.0625 C-127.39234141 138.26559888 -140.82093445 145.80329038 -156 148 C-171.40195586 149.3287228 -184.82209783 145.10055091 -197.0546875 135.63671875 C-207.58053531 126.46582425 -214.93454635 115.07489551 -217 101 C-217.95735126 84.19112107 -214.94084915 69.86560704 -204.3125 56.25 C-197.68863466 49.14794117 -189.22591256 43.11839076 -180 40 C-178.43572266 39.46826172 -178.43572266 39.46826172 -176.83984375 38.92578125 C-161.08931138 35.12834873 -145.25636108 38.40590465 -131.4296875 46.44140625 C-124.64517829 50.79352711 -119.44109962 56.25060848 -115 63 C-115 63.66 -115 64.32 -115 65 C-104.05326122 59.00140829 -93.21846207 52.8321144 -82.44677734 46.5246582 C-75.02161237 42.17689836 -67.58005085 37.85881155 -60.125 33.5625 C-58.51322876 32.63352905 -58.51322876 32.63352905 -56.86889648 31.68579102 C-54.68368855 30.42659328 -52.49838543 29.16756073 -50.31298828 27.90869141 C-45.83587419 25.32931941 -41.35987571 22.7480166 -36.88427734 20.16601562 C-34.69354454 18.90239141 -32.50247127 17.63935723 -30.31103516 16.37695312 C-25.26964235 13.47140281 -20.23434117 10.55652022 -15.21484375 7.61328125 C-14.32917725 7.09540039 -13.44351074 6.57751953 -12.53100586 6.04394531 C-10.88774342 5.08211292 -9.24650284 4.11681477 -7.60766602 3.14746094 C-2.22318174 0 -2.22318174 0 0 0 Z " fill="#00599C" transform="translate(327,93)"/>
<path d="M0 0 C1.17046875 0.36222656 2.3409375 0.72445312 3.546875 1.09765625 C26.43510311 8.5999088 45.65160601 23.15711048 59.8125 42.5625 C60.25166748 43.15836914 60.69083496 43.75423828 61.14331055 44.36816406 C62.33203125 46.06640625 62.33203125 46.06640625 64 49 C62.71035673 52.86892982 61.38906206 53.21175154 57.8828125 55.1875 C56.80902344 55.79907959 55.73523438 56.41065918 54.62890625 57.04077148 C53.46106028 57.69406719 52.29308901 58.34713894 51.125 59 C49.94350847 59.66846581 48.76252113 60.33782353 47.58203125 61.00805664 C45.79175156 62.02400868 44.0009817 63.03900919 42.20806885 64.05030823 C38.49210639 66.14654523 34.7968346 68.27429893 31.1171875 70.43359375 C30.24562012 70.94470703 29.37405273 71.45582031 28.47607422 71.98242188 C26.85387312 72.93571694 25.23304977 73.89136128 23.61376953 74.84960938 C18.22156868 78 18.22156868 78 16 78 C14.66796875 76.42578125 14.66796875 76.42578125 13.1875 74.3125 C4.55852076 62.48144171 -7.49550749 54.63335248 -22 52 C-37.71040932 50.37397599 -51.11393954 52.59113857 -63.95703125 62.3125 C-66.49474756 64.40866337 -68.79669939 66.55188821 -71 69 C-71.70189453 69.69609375 -71.70189453 69.69609375 -72.41796875 70.40625 C-82.29000288 80.76046575 -85.36922038 94.30434645 -85.22827148 108.1315918 C-84.87272355 122.21625122 -79.27864236 134.63997755 -69.453125 144.81640625 C-57.84816244 155.14630127 -44.00618083 160.60175104 -28.53125 160.3125 C-12.75715276 158.91656219 0.11731822 152.31329149 11 141 C12.84775669 138.72775866 14.42133145 136.4732474 16 134 C20.1010795 134.59245054 23.01417155 135.93894882 26.578125 138.02734375 C27.64949707 138.6505249 28.72086914 139.27370605 29.82470703 139.91577148 C30.95505371 140.58294189 32.08540039 141.2501123 33.25 141.9375 C34.41614618 142.61918329 35.5826523 143.30025119 36.74951172 143.98071289 C40.17128917 145.97878619 43.585745 147.98910048 47 150 C48.83049015 151.07332439 50.66119525 152.14628237 52.4921875 153.21875 C56.33302863 155.47093628 60.16846078 157.73202762 64 160 C56.18259814 181.81055118 33.41795563 197.08708368 13.42578125 206.72265625 C6.09059936 210.00694561 -1.12844161 212.40455662 -9 214 C-9.92941406 214.20496094 -10.85882813 214.40992188 -11.81640625 214.62109375 C-39.38445859 220.05968911 -68.44692516 213.02508207 -91.75585938 197.85742188 C-95.31621205 195.41154041 -98.67388227 192.75248294 -102 190 C-102.84820312 189.31550781 -103.69640625 188.63101563 -104.5703125 187.92578125 C-122.63753656 172.60545489 -134.2305996 151.02578073 -139 128 C-139.20496094 127.15308594 -139.40992188 126.30617187 -139.62109375 125.43359375 C-145.49653899 97.5961394 -138.4091496 69.69205622 -123.86328125 45.79296875 C-107.23831807 20.87295056 -81.93918623 3.17081472 -52.4375 -2.75 C-35.16499049 -5.80858999 -16.65470148 -5.69471295 0 0 Z " fill="#FDFEFE" transform="translate(196,80)"/>
<path d="M0 0 C2.99815247 2.84559161 5.38538933 5.80180745 7.75 9.1875 C24.05663576 31.73605312 48.99145083 47.9041209 76.640625 52.62109375 C91.84726873 54.89404697 106.0361409 54.6852574 121 51 C121.92941406 50.79503906 122.85882813 50.59007812 123.81640625 50.37890625 C152.0920885 43.5944281 175.84826445 24.39059868 191 0 C195.5312513 1.65412669 199.61861733 3.89703812 203.8125 6.25 C204.58730713 6.68256104 205.36211426 7.11512207 206.16040039 7.56079102 C215.85806219 13.00293877 225.4405765 18.64424672 235.03466797 24.26611328 C239.68157887 26.98325153 244.3400427 29.6803155 249 32.375 C249.81331787 32.84542725 250.62663574 33.31585449 251.46459961 33.80053711 C253.30953046 34.86737521 255.15473058 35.93374762 257 37 C253.58077056 47.18498565 242.92497474 52.1030214 234 56.875 C231.75834861 58.10146562 229.51746362 59.32933305 227.27734375 60.55859375 C226.19565918 61.14882324 225.11397461 61.73905273 223.99951172 62.34716797 C220.14302076 64.47222444 216.34478538 66.68372779 212.5625 68.9375 C205.59306523 73.07444641 198.58496961 77.14122235 191.5625 81.1875 C190.45527588 81.82550537 189.34805176 82.46351074 188.20727539 83.12084961 C185.93662932 84.42889477 183.66587642 85.73675448 181.39501953 87.04443359 C174.85321562 90.81258039 168.31487868 94.58673959 161.77636719 98.3605957 C156.22427061 101.56466352 150.6703608 104.76551872 145.11328125 107.9609375 C143.98277344 108.6115918 142.85226563 109.26224609 141.6875 109.93261719 C139.46283891 111.21295599 137.2375918 112.49227717 135.01171875 113.77050781 C129.74773498 116.80182525 124.52782364 119.8812102 119.37060547 123.09057617 C109.64009693 129.12166271 100.30746214 132.92383336 88.7109375 130.52685547 C81.81572912 128.57965093 76.09800606 125.46189649 70 121.75 C67.87288576 120.48225052 65.74526399 119.21535231 63.6171875 117.94921875 C62.52631836 117.29614746 61.43544922 116.64307617 60.31152344 115.97021484 C54.94783137 112.77904742 49.53622204 109.67215329 44.125 106.5625 C41.93999414 105.30357637 39.75509882 104.04446085 37.5703125 102.78515625 C35.94270996 101.84760498 35.94270996 101.84760498 34.28222656 100.89111328 C28.85340058 97.76319852 23.42680719 94.63141552 18 91.5 C15.83334417 90.24998121 13.6666775 88.99998122 11.5 87.75 C5 84 5 84 -1.5 80.25 C-2.5737085 79.63060547 -3.64741699 79.01121094 -4.75366211 78.37304688 C-6.90830624 77.129877 -9.06276757 75.88639025 -11.21704102 74.64257812 C-16.22754121 71.75016853 -21.23962635 68.86064773 -26.25863647 65.98303223 C-28.01728749 64.97451686 -29.77533209 63.9649523 -31.53320312 62.95507812 C-33.72472231 61.69649482 -35.91734504 60.43983013 -38.11132812 59.18554688 C-59.80191827 46.71728857 -59.80191827 46.71728857 -65 39 C-65 38.34 -65 37.68 -65 37 C-64.36835937 36.64921387 -63.73671875 36.29842773 -63.0859375 35.93701172 C-50.12656489 28.73139514 -37.23606849 21.43424529 -24.4453125 13.93261719 C-16.35123139 9.18939898 -8.19959562 4.55801051 0 0 Z " fill="#004482" transform="translate(69,241)"/>
<path d="M0 0 C6.53883373 4.19452518 12.63187751 9.68755593 16.4296875 16.55859375 C16.20336914 18.5625 16.20336914 18.5625 15.4296875 20.55859375 C12.92712933 22.19429272 10.51495169 23.57228047 7.8671875 24.93359375 C6.20818804 25.82021371 4.5507117 26.7096878 2.89453125 27.6015625 C2.00620605 28.07770996 1.11788086 28.55385742 0.20263672 29.04443359 C-4.61500071 31.67508928 -9.33863795 34.4646758 -14.0703125 37.24609375 C-22.55193488 42.21594823 -31.05094337 47.15371474 -39.5703125 52.05859375 C-49.46254873 57.75514192 -59.3319203 63.48947836 -69.18359375 69.25585938 C-70.12589844 69.80693359 -71.06820312 70.35800781 -72.0390625 70.92578125 C-72.86857422 71.41159668 -73.69808594 71.89741211 -74.55273438 72.39794922 C-75.87077826 73.15617534 -77.2102694 73.8785722 -78.5703125 74.55859375 C-85.67158654 60.05790059 -88.26054847 45.36405695 -83.6796875 29.50390625 C-77.86069971 14.05490347 -67.96953579 2.10181608 -52.7578125 -4.87890625 C-51.38087571 -5.44782025 -49.98170729 -5.96434987 -48.5703125 -6.44140625 C-47.52746094 -6.79589844 -46.48460937 -7.15039062 -45.41015625 -7.515625 C-29.65962388 -11.31305752 -13.82667358 -8.0355016 0 0 Z " fill="#659AD2" transform="translate(195.5703125,139.44140625)"/>
<path d="M0 0 C2.62155749 1.3489853 5.18605419 2.73623658 7.75 4.1875 C8.51699219 4.61732178 9.28398437 5.04714355 10.07421875 5.48999023 C20.0727013 11.12203436 29.96327924 16.9440034 39.85546875 22.76000977 C41.21494669 23.54607402 42.595414 24.297707 44 25 C43.26168259 32.05220427 37.93055704 36.34336279 33 41 C20.28065123 50.81876073 5.96476897 55.16312065 -10 54 C-25.39510636 51.82610822 -39.00914858 43.20212568 -48.37109375 30.87890625 C-48.90863281 29.92886719 -49.44617188 28.97882813 -50 28 C-48.71035673 24.13107018 -47.38906206 23.78824846 -43.8828125 21.8125 C-42.80918457 21.20083984 -41.73555664 20.58917969 -40.62939453 19.95898438 C-39.46147779 19.30560553 -38.29334178 18.6526185 -37.125 18 C-35.3460932 16.99568636 -33.56854643 15.98899249 -31.79098511 14.9822998 C-30.5943277 14.30509044 -29.3969969 13.62906966 -28.19900513 12.95422363 C-24.49615365 10.86477512 -20.83051017 8.7231874 -17.1875 6.53125 C-16.32495605 6.015625 -15.46241211 5.5 -14.57373047 4.96875 C-12.97358297 4.00898057 -11.3785794 3.04056821 -9.78955078 2.0625 C-9.07782715 1.6396875 -8.36610352 1.216875 -7.6328125 0.78125 C-7.02324707 0.41064453 -6.41368164 0.04003906 -5.78564453 -0.34179688 C-3.44616219 -1.20414913 -2.32035224 -0.84316945 0 0 Z " fill="#014582" transform="translate(168,187)"/>
<path d="M0 0 C4.29 0 8.58 0 13 0 C13 3.96 13 7.92 13 12 C16.96 12 20.92 12 25 12 C25 16.29 25 20.58 25 25 C21.04 25 17.08 25 13 25 C13 28.96 13 32.92 13 37 C8.71 37 4.42 37 0 37 C0 33.04 0 29.08 0 25 C-3.96 25 -7.92 25 -12 25 C-12 20.71 -12 16.42 -12 12 C-8.04 12 -4.08 12 0 12 C0 8.04 0 4.08 0 0 Z " fill="#F0F5F9" transform="translate(296,167)"/>
<path d="M0 0 C4.29 0 8.58 0 13 0 C13 3.96 13 7.92 13 12 C16.96 12 20.92 12 25 12 C25 16.29 25 20.58 25 25 C21.04 25 17.08 25 13 25 C13 28.96 13 32.92 13 37 C8.71 37 4.42 37 0 37 C0 33.04 0 29.08 0 25 C-3.96 25 -7.92 25 -12 25 C-12 20.71 -12 16.42 -12 12 C-8.04 12 -4.08 12 0 12 C0 8.04 0 4.08 0 0 Z " fill="#F0F5F9" transform="translate(250,167)"/>
</svg>
