<?xml version="1.0" encoding="UTF-8"?>
<svg version="1.1" xmlns="http://www.w3.org/2000/svg" width="225" height="225">
<path d="M0 0 C74.25 0 148.5 0 225 0 C225 74.25 225 148.5 225 225 C150.75 225 76.5 225 0 225 C0 150.75 0 76.5 0 0 Z " fill="#FEFEFD" transform="translate(0,0)"/>
<path d="M0 0 C49.83 0 99.66 0 151 0 C150.40149281 10.77312934 149.77921639 21.47173463 148.80078125 32.20483398 C148.62740738 34.14738571 148.62740738 34.14738571 148.45053101 36.12918091 C148.1393464 39.61400427 147.82436543 43.09847377 147.50838852 46.58286548 C147.24367725 49.50611441 146.98093984 52.42953948 146.71818638 55.35296494 C146.09906359 62.24117609 145.47685463 69.12910339 144.85253906 76.0168457 C144.20940543 83.11271848 143.57120575 90.20902295 142.9354105 97.30555671 C142.38684879 103.42674933 141.83548694 109.54768513 141.28181362 115.66841751 C140.95216416 119.31278355 140.62352896 122.9572335 140.29751587 126.6019268 C139.93552233 130.64702484 139.56767239 134.69156927 139.19921875 138.73608398 C139.09217621 139.94066757 138.98513367 141.14525116 138.87484741 142.38633728 C138.77394806 143.48353088 138.67304871 144.58072449 138.5690918 145.71116638 C138.48282028 146.66581 138.39654877 147.62045362 138.30766296 148.60402584 C138 151 138 151 137 154 C134.40704913 155.0616067 131.92974289 155.90280263 129.25 156.6875 C128.42959229 156.93733643 127.60918457 157.18717285 126.76391602 157.44458008 C115.30977977 160.88447043 103.7510492 163.97947062 92.20654297 167.09912109 C88.59166104 168.11472291 85.0292337 169.25666528 81.47875977 170.4777832 C73.07212271 172.24886531 65.81450621 169.8412561 57.75 167.5 C55.86921753 166.96729492 55.86921753 166.96729492 53.95043945 166.42382812 C50.64015658 165.48611065 47.33357928 164.53593896 44.02764893 163.58300781 C40.64430404 162.61019813 37.25755971 161.64937664 33.87109375 160.6875 C27.24404609 158.80329612 20.62084097 156.90589521 14 155 C11.95181445 140.29211758 10.70035741 125.50505775 9.37406301 110.7187171 C9.04476574 107.05257092 8.71272325 103.3866731 8.38113403 99.72073364 C7.82617015 93.58027524 7.27349635 87.43961394 6.72216797 81.29882812 C6.08582151 74.21148006 5.44552227 67.12449715 4.803213 60.03768718 C4.18246351 53.18749595 3.56474033 46.33703488 2.94830704 39.48645401 C2.68697918 36.58300612 2.42455386 33.67966056 2.16122055 30.77639389 C1.79433929 26.72994578 1.4318627 22.68311474 1.06982422 18.63623047 C0.96075745 17.43929062 0.85169067 16.24235077 0.73931885 15.00914001 C0.64123932 13.9049321 0.54315979 12.80072418 0.44210815 11.66305542 C0.35621367 10.70857954 0.27031918 9.75410366 0.18182182 8.77070427 C-0.00966074 5.85278411 0 2.92419623 0 0 Z " fill="#D3B629" transform="translate(37,27)"/>
<path d="M0 0 C20.13 0 40.26 0 61 0 C61 9.55539374 60.9721986 18.68438916 60.09790039 28.12597656 C59.95400627 29.77307365 59.95400627 29.77307365 59.8072052 31.45344543 C59.49416544 35.01647994 59.17116182 38.57852683 58.84765625 42.140625 C58.6253264 44.64161616 58.40352874 47.14265468 58.18223572 49.64373779 C57.71998505 54.85159476 57.25308822 60.05900586 56.7824707 65.26611328 C56.23923966 71.27796226 55.70266647 77.29036215 55.17044073 83.30319428 C54.65569085 89.11806069 54.13718606 94.93258524 53.61669731 100.74694061 C53.39628195 103.21088868 53.17660844 105.67490323 52.95768929 108.13898468 C52.6522092 111.5685445 52.34249262 114.99769458 52.03149414 118.42675781 C51.94158203 119.44387344 51.85166992 120.46098907 51.7590332 121.50892639 C51.673517 122.4421019 51.58800079 123.3752774 51.49989319 124.33673096 C51.39066072 125.54997984 51.39066072 125.54997984 51.27922153 126.7877388 C51.00642815 128.94907004 50.69255355 130.93284193 50 133 C48.00073242 134.01733398 48.00073242 134.01733398 45.35546875 134.74609375 C44.37755371 135.02372559 43.39963867 135.30135742 42.39208984 135.58740234 C41.3345752 135.86793457 40.27706055 136.1484668 39.1875 136.4375 C37.57415771 136.88536865 37.57415771 136.88536865 35.92822266 137.34228516 C32.62441679 138.25084393 29.31436906 139.13082818 26 140 C25.0104834 140.26022949 24.0209668 140.52045898 23.00146484 140.78857422 C15.35998822 142.7809151 7.79328762 144.70111873 0 146 C0 97.82 0 49.64 0 0 Z " fill="#FAD625" transform="translate(113,40)"/>
<path d="M0 0 C15.84 0 31.68 0 48 0 C47.67 5.94 47.34 11.88 47 18 C36.44 18 25.88 18 15 18 C15 26.58 15 35.16 15 44 C23.37676355 43.0152244 23.37676355 43.0152244 31.75292969 42.02539062 C32.79868164 41.90357422 33.84443359 41.78175781 34.921875 41.65625 C35.99018555 41.53056641 37.05849609 41.40488281 38.15917969 41.27539062 C41 41 41 41 45 41 C44.59384664 46.8351591 44.18481691 52.67010704 43.77319336 58.50488281 C43.63374252 60.48725004 43.49505924 62.46967143 43.35717773 64.45214844 C43.15813801 67.31199713 42.95628141 70.17163563 42.75390625 73.03125 C42.66321617 74.34736267 42.66321617 74.34736267 42.57069397 75.69006348 C42.20432927 80.82193703 41.68389466 85.90046852 41 91 C40.20416504 91.19634033 39.40833008 91.39268066 38.58837891 91.5949707 C35.58723472 92.3366478 32.58665737 93.08056827 29.58642578 93.82592773 C27.66871242 94.30165623 25.75037848 94.7748809 23.83203125 95.24804688 C17.48391415 96.8267671 11.19420405 98.46794043 4.96630859 100.47338867 C3 101 3 101 0 101 C0 95.06 0 89.12 0 83 C6.30072854 80.83193902 12.61001588 78.96942183 19.0625 77.3125 C20.3609082 76.97508789 20.3609082 76.97508789 21.68554688 76.63085938 C23.78965238 76.08448944 25.89472496 75.54184597 28 75 C28.33 70.38 28.66 65.76 29 61 C27.576875 61.28875 26.15375 61.5775 24.6875 61.875 C22.79174523 62.25039698 20.89590742 62.62537477 19 63 C18.06542969 63.19078125 17.13085938 63.3815625 16.16796875 63.578125 C15.24628906 63.75859375 14.32460937 63.9390625 13.375 64.125 C12.53710938 64.29257813 11.69921875 64.46015625 10.8359375 64.6328125 C7.25180285 65.09687401 3.61405233 65 0 65 C0 43.55 0 22.1 0 0 Z " fill="#FEFEFB" transform="translate(119,60)"/>
<path d="M0 0 C4.95 0 9.9 0 15 0 C15 33.33 15 66.66 15 101 C2.63654836 98.7520997 2.63654836 98.7520997 -2.0078125 97.34375 C-3.51794922 96.89322266 -3.51794922 96.89322266 -5.05859375 96.43359375 C-6.07050781 96.12550781 -7.08242187 95.81742187 -8.125 95.5 C-16.58960612 92.93459122 -16.58960612 92.93459122 -25.1796875 90.84375 C-29 90 -29 90 -30 89 C-30.08631874 87.65732587 -30.10706473 86.31025678 -30.09765625 84.96484375 C-30.09443359 84.15595703 -30.09121094 83.34707031 -30.08789062 82.51367188 C-30.07951172 81.66353516 -30.07113281 80.81339844 -30.0625 79.9375 C-30.05798828 79.08349609 -30.05347656 78.22949219 -30.04882812 77.34960938 C-30.03700373 75.23304337 -30.01906769 73.11651315 -30 71 C-23.8098622 72.31196993 -17.7140553 73.84389729 -11.625 75.5625 C-10.83222656 75.78357422 -10.03945312 76.00464844 -9.22265625 76.23242188 C-6.12353262 77.10028137 -3.05401 77.98199667 0 79 C0 52.93 0 26.86 0 0 Z " fill="#ECEFEE" transform="translate(92,60)"/>
</svg>
